<svg width="19" height="18" viewBox="0 0 19 18" fill="none" xmlns="http://www.w3.org/2000/svg">
<path d="M5.63753 4.99389L8.30453 0.591891C8.3912 0.451224 8.4952 0.352891 8.61653 0.296891C8.73786 0.240891 8.86586 0.212891 9.00053 0.212891C9.1352 0.212891 9.2632 0.240891 9.38453 0.296891C9.50586 0.352891 9.60986 0.451224 9.69653 0.591891L12.3635 4.99389C12.4509 5.12856 12.4945 5.26989 12.4945 5.41789C12.4945 5.56589 12.4592 5.70222 12.3885 5.82689C12.3179 5.95156 12.2232 6.04989 12.1045 6.12189C11.9859 6.19389 11.8465 6.23022 11.6865 6.23089H6.31453C6.15386 6.23089 6.0132 6.19389 5.89253 6.11989C5.77186 6.04589 5.67853 5.94822 5.61253 5.82689C5.54186 5.70689 5.50653 5.57356 5.50653 5.42689C5.50653 5.28022 5.54986 5.13589 5.63653 4.99389M14.5005 17.2309C13.4559 17.2309 12.5729 16.8702 11.8515 16.1489C11.1302 15.4276 10.7695 14.5446 10.7695 13.4999C10.7695 12.4552 11.1302 11.5722 11.8515 10.8509C12.5729 10.1296 13.4559 9.76889 14.5005 9.76889C15.5452 9.76889 16.4282 10.1296 17.1495 10.8509C17.8709 11.5722 18.2315 12.4552 18.2315 13.4999C18.2315 14.5446 17.8709 15.4276 17.1495 16.1489C16.4282 16.8702 15.5452 17.2309 14.5005 17.2309ZM0.770531 15.9219V11.0719C0.770531 10.8432 0.847531 10.6522 1.00153 10.4989C1.15686 10.3456 1.34886 10.2689 1.57753 10.2689H6.42753C6.65686 10.2689 6.8482 10.3462 7.00153 10.5009C7.15486 10.6562 7.23153 10.8486 7.23153 11.0779V15.9279C7.23153 16.1566 7.15386 16.3476 6.99853 16.5009C6.84386 16.6542 6.65186 16.7309 6.42253 16.7309H1.57253C1.34386 16.7309 1.15286 16.6532 0.999531 16.4979C0.846198 16.3432 0.770531 16.1512 0.770531 15.9219ZM14.4995 16.2309C15.2642 16.2309 15.9109 15.9669 16.4395 15.4389C16.9682 14.9109 17.2322 14.2646 17.2315 13.4999C17.2309 12.7352 16.9669 12.0889 16.4395 11.5609C15.9122 11.0329 15.2659 10.7689 14.5005 10.7689C13.7352 10.7689 13.0889 11.0329 12.5615 11.5609C12.0342 12.0889 11.7702 12.7352 11.7695 13.4999C11.7689 14.2646 12.0329 14.9109 12.5615 15.4389C13.0902 15.9669 13.7362 16.2309 14.4995 16.2309ZM1.76953 15.7309H6.23153V11.2689H1.76953V15.7309ZM6.62753 5.23089H11.3735L9.00053 1.42689L6.62753 5.23089Z" fill="black"/>
</svg>
