<svg width="20" height="20" viewBox="0 0 20 20" fill="none" xmlns="http://www.w3.org/2000/svg">
<rect width="20" height="20" rx="4" fill="#F2994A"/>
<path d="M7.01314 13.0814L4.32065 10.3219C4.17557 10.1732 3.9788 10.0897 3.77362 10.0897C3.56844 10.0897 3.37167 10.1732 3.22659 10.3219C3.08151 10.4706 3 10.6723 3 10.8825C3 10.9867 3.02001 11.0898 3.05889 11.186C3.09777 11.2822 3.15475 11.3696 3.22659 11.4432L6.46999 14.7674C6.7726 15.0775 7.26144 15.0775 7.56405 14.7674L15.7734 6.35355C15.9185 6.20485 16 6.00318 16 5.79289C16 5.5826 15.9185 5.38093 15.7734 5.23223C15.6283 5.08354 15.4316 5 15.2264 5C15.0212 5 14.8244 5.08354 14.6793 5.23223L7.01314 13.0814Z" fill="white"/>
</svg>
