<svg width="15" height="16" viewBox="0 0 15 16" fill="none" xmlns="http://www.w3.org/2000/svg">
<path d="M14.1667 0H0.833333C0.3725 0 0 0.376421 0 0.842105V3.02316C0 3.46358 0.1775 3.89642 0.485833 4.208L5 8.76968V15.1579C5 15.4501 5.15 15.7204 5.39583 15.8745C5.52917 15.9579 5.68083 16 5.83333 16C5.96083 16 6.08833 15.9705 6.20583 15.9116L9.53917 14.2274C9.82167 14.0842 10 13.7928 10 13.4737V8.76968L12.2571 6.48884L14.5142 4.208C14.8225 3.89642 15 3.46358 15 3.02316V0.842105C15 0.376421 14.6275 0 14.1667 0ZM8.5775 7.82568C8.42083 7.98316 8.33333 8.19705 8.33333 8.42105V12.9533L6.66667 13.7954V8.42105C6.66667 8.19705 6.57917 7.98316 6.4225 7.82568L1.66667 3.02316V1.68421H13.3342L13.3358 3.01726L8.5775 7.82568Z" fill="#444951"/>
</svg>
