<svg width="18" height="18" viewBox="0 0 18 18" fill="none" xmlns="http://www.w3.org/2000/svg">
<path d="M8.58019 1.83887H2.68449C2.23773 1.83887 1.80928 2.01635 1.49337 2.33228C1.17747 2.6482 1 3.07669 1 3.52348V15.3157C1 15.7625 1.17747 16.191 1.49337 16.5069C1.80928 16.8229 2.23773 17.0003 2.68449 17.0003H14.4759C14.9227 17.0003 15.3511 16.8229 15.667 16.5069C15.9829 16.191 16.1604 15.7625 16.1604 15.3157V9.41961" stroke="#828282" stroke-linecap="round" stroke-linejoin="round"/>
<path d="M13.9506 1.52334C14.2857 1.18825 14.7401 1 15.214 1C15.6879 1 16.1423 1.18825 16.4774 1.52334C16.8124 1.85843 17.0007 2.31291 17.0007 2.7868C17.0007 3.26069 16.8124 3.71516 16.4774 4.05025L8.88622 11.6428C8.68623 11.8426 8.43916 11.9889 8.16779 12.0681L5.74802 12.7757C5.67555 12.7968 5.59872 12.7981 5.52559 12.7794C5.45246 12.7606 5.38571 12.7226 5.33233 12.6692C5.27895 12.6158 5.2409 12.549 5.22216 12.4759C5.20342 12.4028 5.20469 12.3259 5.22583 12.2535L5.93331 9.83352C6.01293 9.56234 6.15949 9.31555 6.35949 9.11587L13.9506 1.52334Z" stroke="#828282" stroke-linecap="round" stroke-linejoin="round"/>
</svg>
