<svg width="96" height="96" viewBox="0 0 96 96" fill="none" xmlns="http://www.w3.org/2000/svg">
<rect width="96" height="96" rx="16" fill="#F9FAFC"/>
<rect x="0.666667" y="0.666667" width="94.6667" height="94.6667" rx="15.3333" stroke="#212121" stroke-opacity="0.2" stroke-width="1.33333" stroke-linecap="round" stroke-dasharray="10.67 10.67"/>
<path d="M44.052 42.8477L46.8 40.087V51.5979C46.8 51.9162 46.9264 52.2215 47.1515 52.4466C47.3765 52.6717 47.6817 52.7982 48 52.7982C48.3183 52.7982 48.6235 52.6717 48.8485 52.4466C49.0736 52.2215 49.2 51.9162 49.2 51.5979V40.087L51.948 42.8477C52.0596 42.9602 52.1923 43.0495 52.3385 43.1105C52.4847 43.1714 52.6416 43.2028 52.8 43.2028C52.9584 43.2028 53.1153 43.1714 53.2615 43.1105C53.4077 43.0495 53.5404 42.9602 53.652 42.8477C53.7645 42.7361 53.8537 42.6034 53.9147 42.4571C53.9756 42.3109 54.007 42.154 54.007 41.9955C54.007 41.8371 53.9756 41.6802 53.9147 41.5339C53.8537 41.3876 53.7645 41.2549 53.652 41.1433L48.852 36.3421C48.7379 36.2328 48.6033 36.1472 48.456 36.09C48.1638 35.97 47.8362 35.97 47.544 36.09C47.3967 36.1472 47.2621 36.2328 47.148 36.3421L42.348 41.1433C42.2361 41.2552 42.1474 41.3881 42.0868 41.5343C42.0263 41.6805 41.9951 41.8372 41.9951 41.9955C41.9951 42.1538 42.0263 42.3105 42.0868 42.4567C42.1474 42.6029 42.2361 42.7358 42.348 42.8477C42.4599 42.9596 42.5927 43.0484 42.7389 43.109C42.8851 43.1695 43.0418 43.2007 43.2 43.2007C43.3582 43.2007 43.5149 43.1695 43.6611 43.109C43.8073 43.0484 43.9401 42.9596 44.052 42.8477ZM58.8 47.997C58.4817 47.997 58.1765 48.1235 57.9515 48.3486C57.7264 48.5737 57.6 48.879 57.6 49.1973V56.3991C57.6 56.7174 57.4736 57.0227 57.2485 57.2478C57.0235 57.4729 56.7183 57.5994 56.4 57.5994H39.6C39.2817 57.5994 38.9765 57.4729 38.7515 57.2478C38.5264 57.0227 38.4 56.7174 38.4 56.3991V49.1973C38.4 48.879 38.2736 48.5737 38.0485 48.3486C37.8235 48.1235 37.5183 47.997 37.2 47.997C36.8817 47.997 36.5765 48.1235 36.3515 48.3486C36.1264 48.5737 36 48.879 36 49.1973V56.3991C36 57.3541 36.3793 58.27 37.0544 58.9453C37.7295 59.6206 38.6452 60 39.6 60H56.4C57.3548 60 58.2705 59.6206 58.9456 58.9453C59.6207 58.27 60 57.3541 60 56.3991V49.1973C60 48.879 59.8736 48.5737 59.6485 48.3486C59.4235 48.1235 59.1183 47.997 58.8 47.997Z" fill="#212121" fill-opacity="0.2"/>
</svg>
