<svg width="24" height="24" viewBox="0 0 24 24" fill="none" xmlns="http://www.w3.org/2000/svg">
<path d="M17.6 8.66667L16.816 16.5981C16.6975 17.8004 16.6387 18.4011 16.368 18.8553C16.1306 19.2552 15.7815 19.575 15.3647 19.7743C14.8915 20 14.296 20 13.1013 20H10.8987C9.70493 20 9.10853 20 8.63533 19.7733C8.21818 19.5742 7.86871 19.2544 7.63107 18.8544C7.36227 18.4011 7.30253 17.8004 7.18307 16.5981L6.4 8.66667M13.4 14.8056V10.0833M10.6 14.8056V10.0833M5 6.30556H9.30733M9.30733 6.30556L9.6676 3.782C9.77213 3.323 10.1492 3 10.5823 3H13.4177C13.8508 3 14.2269 3.323 14.3324 3.782L14.6927 6.30556M9.30733 6.30556H14.6927M14.6927 6.30556H19" stroke="#212121" stroke-width="1.5" stroke-linecap="round" stroke-linejoin="round"/>
</svg>
