<svg width="120" height="120" viewBox="0 0 120 120" fill="none" xmlns="http://www.w3.org/2000/svg">
<path d="M10.001 72.4991C10.001 75.4539 10.583 78.3797 11.7137 81.1095C12.8444 83.8393 14.5018 86.3197 16.5911 88.409C20.8106 92.6286 26.5336 94.9991 32.501 94.9991H92.501C96.9308 95.0071 101.199 93.3348 104.444 90.3196C107.689 87.3044 109.67 83.1707 109.988 78.7522C110.305 74.3338 108.935 69.9594 106.153 66.5116C103.372 63.0637 99.3865 60.799 95.001 60.1741C95.0498 51.6679 91.9992 43.4351 86.4194 37.0146C80.8396 30.5941 73.1125 26.4253 64.6826 25.2877C56.2527 24.15 47.697 26.1213 40.6148 30.833C33.5326 35.5447 28.4088 42.6743 26.201 50.8891C21.5257 52.2527 17.4191 55.0964 14.498 58.9931C11.5768 62.8898 9.99881 67.6291 10.001 72.4991Z" stroke="#FF9500" stroke-width="6" stroke-linejoin="round"/>
<path d="M60.002 77.5H60.052V77.55H60.002V77.5Z" stroke="#FF9500" stroke-width="8.25" stroke-linejoin="round"/>
<path d="M60.002 59.9995V44.9995" stroke="#FF9500" stroke-width="6" stroke-linecap="round" stroke-linejoin="round"/>
</svg>
