<svg width="28" height="28" viewBox="0 0 28 28" fill="none" xmlns="http://www.w3.org/2000/svg">
<rect x="1" y="1" width="26" height="26" rx="13" stroke="#EBEBEB" stroke-width="2"/>
<path d="M10.9768 10.1678L11.1536 9.9911L11.1537 9.9912C11.1538 9.99123 11.1538 9.99126 11.1538 9.99129L14.0002 12.8387L16.8467 9.9911L16.8467 9.99107C16.923 9.91473 17.0137 9.85418 17.1134 9.81287C17.2131 9.77156 17.32 9.7503 17.428 9.7503C17.5359 9.7503 17.6428 9.77156 17.7426 9.81287C17.8423 9.85418 17.9329 9.91473 18.0092 9.99107C18.0856 10.0674 18.1461 10.158 18.1874 10.2577C18.2287 10.3575 18.25 10.4644 18.25 10.5723C18.25 10.6803 18.2287 10.7872 18.1874 10.8869C18.1461 10.9866 18.0856 11.0773 18.0092 11.1536L18.0092 11.1536L15.1616 14.0002L18.0092 16.8467L18.0092 16.8467C18.0856 16.923 18.1461 17.0137 18.1874 17.1134C18.2287 17.2131 18.25 17.32 18.25 17.428C18.25 17.5359 18.2287 17.6428 18.1874 17.7426C18.1461 17.8423 18.0856 17.9329 18.0092 18.0092C17.9329 18.0856 17.8423 18.1461 17.7426 18.1874C17.6428 18.2287 17.5359 18.25 17.428 18.25C17.32 18.25 17.2131 18.2287 17.1134 18.1874C17.0137 18.1461 16.923 18.0856 16.8467 18.0092L16.8467 18.0092L14.0002 15.1616L11.1536 18.0092L11.1536 18.0092C11.0773 18.0856 10.9866 18.1461 10.8869 18.1874C10.7872 18.2287 10.6803 18.25 10.5723 18.25C10.4644 18.25 10.3575 18.2287 10.2577 18.1874C10.158 18.1461 10.0674 18.0856 9.99107 18.0092C9.91473 17.9329 9.85418 17.8423 9.81287 17.7426C9.77156 17.6428 9.7503 17.5359 9.7503 17.428C9.7503 17.32 9.77156 17.2131 9.81287 17.1134C9.85418 17.0137 9.91473 16.923 9.99107 16.8467L9.9911 16.8467L12.8387 14.0002L10.1678 10.1678M10.9768 10.1678C10.9237 10.1146 10.8607 10.0724 10.7913 10.0436C10.7219 10.0148 10.6475 10 10.5723 10C10.4972 10 10.4228 10.0148 10.3534 10.0436C10.284 10.0724 10.2209 10.1146 10.1678 10.1678M10.9768 10.1678L13.8234 13.0155L10.9768 10.1678ZM10.1678 10.1678L9.99129 9.99084C9.99121 9.99092 9.99114 9.99099 9.99106 9.99106M10.1678 10.1678L9.99084 9.99129C9.99092 9.99121 9.99099 9.99114 9.99106 9.99106M9.99106 9.99106C9.91469 10.0673 9.85408 10.1579 9.81272 10.2575C9.77131 10.3573 9.75 10.4643 9.75 10.5723C9.75 10.6804 9.77131 10.7873 9.81272 10.8871C9.85411 10.9868 9.91476 11.0774 9.9912 11.1537L9.9911 11.1536L10.1678 10.9768L9.99129 11.1538L9.99106 9.99106Z" fill="#EBEBEB" stroke="#EBEBEB" stroke-width="0.5"/>
</svg>
