<svg width="24" height="24" viewBox="0 0 24 24" fill="none" xmlns="http://www.w3.org/2000/svg">
<g opacity="0.5">
<path d="M8.28571 3C8.51304 3 8.73106 3.08889 8.89181 3.24713C9.05255 3.40536 9.14286 3.61997 9.14286 3.84375V5.25H14.8571V3.84375C14.8571 3.61997 14.9474 3.40536 15.1082 3.24713C15.2689 3.08889 15.487 3 15.7143 3C15.9416 3 16.1596 3.08889 16.3204 3.24713C16.4811 3.40536 16.5714 3.61997 16.5714 3.84375V5.25H18C19.104 5.25 20 6.132 20 7.21875V19.0312C20 19.5534 19.7893 20.0542 19.4142 20.4234C19.0391 20.7926 18.5304 21 18 21H6C5.46957 21 4.96086 20.7926 4.58579 20.4234C4.21071 20.0542 4 19.5534 4 19.0312V7.21875C4 6.132 4.896 5.25 6 5.25H7.42857V3.84375C7.42857 3.61997 7.51888 3.40536 7.67962 3.24713C7.84037 3.08889 8.05839 3 8.28571 3ZM5.71429 11.4375V19.0312C5.71429 19.1865 5.84229 19.3125 6 19.3125H18C18.0758 19.3125 18.1484 19.2829 18.202 19.2301C18.2556 19.1774 18.2857 19.1058 18.2857 19.0312V11.4375H5.71429ZM18 6.9375H6C5.92422 6.9375 5.85155 6.96713 5.79797 7.01988C5.74439 7.07262 5.71429 7.14416 5.71429 7.21875V9.75H18.2857V7.21875C18.2857 7.14416 18.2556 7.07262 18.202 7.01988C18.1484 6.96713 18.0758 6.9375 18 6.9375Z" fill="#212121"/>
</g>
</svg>
