<svg width="96" height="96" viewBox="0 0 96 96" fill="none" xmlns="http://www.w3.org/2000/svg">
<rect width="96" height="96" rx="16" fill="#F9FAFC"/>
<rect x="0.666667" y="0.666667" width="94.6667" height="94.6667" rx="15.3333" stroke="#212121" stroke-opacity="0.2" stroke-width="1.33333" stroke-linecap="round" stroke-dasharray="10.67 10.67"/>
<path fill-rule="evenodd" clip-rule="evenodd" d="M42.6667 45.3333C43.7707 45.3333 44.6667 44.4373 44.6667 43.3333C44.6667 42.2293 43.7707 41.3333 42.6667 41.3333C41.5627 41.3333 40.6667 42.2293 40.6667 43.3333C40.6667 44.4373 41.5627 45.3333 42.6667 45.3333ZM55.9994 57.3327H40.7474L50.0874 49.5394C50.4154 49.2607 51.0101 49.2621 51.3314 49.5381L57.3327 54.6581V55.9994C57.3327 56.7354 56.7354 57.3327 55.9994 57.3327ZM40 38.6667H56C56.736 38.6667 57.3333 39.264 57.3333 40V51.152L53.0627 47.5093C51.7427 46.3867 49.6773 46.3867 48.3693 47.5013L38.6667 55.5973V40C38.6667 39.264 39.264 38.6667 40 38.6667ZM56 36H40C37.7947 36 36 37.7947 36 40V56C36 58.2053 37.7947 60 40 60H56C58.2053 60 60 58.2053 60 56V40C60 37.7947 58.2053 36 56 36Z" fill="#212121" fill-opacity="0.2"/>
</svg>
