<svg width="16" height="18" viewBox="0 0 16 18" fill="none" xmlns="http://www.w3.org/2000/svg">
<path d="M4.28571 0C4.51304 0 4.73106 0.0888948 4.89181 0.247129C5.05255 0.405362 5.14286 0.619974 5.14286 0.84375V2.25H10.8571V0.84375C10.8571 0.619974 10.9474 0.405362 11.1082 0.247129C11.2689 0.0888948 11.487 0 11.7143 0C11.9416 0 12.1596 0.0888948 12.3204 0.247129C12.4811 0.405362 12.5714 0.619974 12.5714 0.84375V2.25H14C15.104 2.25 16 3.132 16 4.21875V16.0312C16 16.5534 15.7893 17.0542 15.4142 17.4234C15.0391 17.7926 14.5304 18 14 18H2C1.46957 18 0.960859 17.7926 0.585786 17.4234C0.210714 17.0542 0 16.5534 0 16.0312V4.21875C0 3.132 0.896 2.25 2 2.25H3.42857V0.84375C3.42857 0.619974 3.51888 0.405362 3.67962 0.247129C3.84037 0.0888948 4.05839 0 4.28571 0ZM1.71429 8.4375V16.0312C1.71429 16.1865 1.84229 16.3125 2 16.3125H14C14.0758 16.3125 14.1484 16.2829 14.202 16.2301C14.2556 16.1774 14.2857 16.1058 14.2857 16.0312V8.4375H1.71429ZM14 3.9375H2C1.92422 3.9375 1.85155 3.96713 1.79797 4.01988C1.74439 4.07262 1.71429 4.14416 1.71429 4.21875V6.75H14.2857V4.21875C14.2857 4.14416 14.2556 4.07262 14.202 4.01988C14.1484 3.96713 14.0758 3.9375 14 3.9375Z" fill="#212121"/>
</svg>
