<svg width="102" height="28" viewBox="0 0 102 28" fill="none" xmlns="http://www.w3.org/2000/svg">
<path d="M15.8127 3.90322L6.02953 17.843H15.6354V21.8939H0.118226V18.2898L9.87188 4.35001H0V0.299125H15.8127V3.90322Z" fill="#FF9500"/>
<path d="M32.2916 17.9324H23.5725L22.2424 21.8939H17.0996L25.0207 0.299125H30.6956L38.9419 21.8939H33.6217L32.2916 17.9324ZM31.0798 14.3283L27.9173 4.97551L24.7843 14.3283H31.0798Z" fill="#FF9500"/>
<path d="M56.1555 28L50.8649 22.1918H50.8354C44.2443 22.2811 39.6039 17.6345 39.6926 11.0816C39.6926 4.49893 44.1851 0.00126692 50.8354 0.00126692C57.3969 -0.0880914 62.0668 4.55851 61.9782 11.0816C61.9782 16.0856 59.4363 19.8982 55.2097 21.4471L62.2146 28H56.1555ZM50.8354 18.0515C54.589 18.0515 57.1309 15.1921 57.1309 11.0816C57.1309 6.94138 54.589 4.1415 50.8354 4.1415C47.0817 4.1415 44.5398 6.94138 44.5398 11.0816C44.5398 15.1921 47.0817 18.0515 50.8354 18.0515Z" fill="#FF9500"/>
<path d="M78.0119 17.9324H69.2927L67.9627 21.8939H62.8198L70.741 0.299125H76.4158L84.6621 21.8939H79.3419L78.0119 17.9324ZM76.8001 14.3283L73.6375 4.97551L70.5045 14.3283H76.8001Z" fill="#FF9500"/>
<path d="M102 3.90322L92.2168 17.843H101.823V21.8939H86.3055V18.2898L96.0592 4.35001H86.1873V0.299125H102V3.90322Z" fill="#FF9500"/>
</svg>
